<svg width="120" height="74" viewBox="0 0 120 74" fill="none" xmlns="http://www.w3.org/2000/svg">
<path d="M0.96 37.68L5.16 31.96C9.48 35.04 12.8 36.08 15.4 36.08C18.16 36.08 19.92 35.12 19.92 34.12C19.92 29.96 1.52 31.56 1.52 21.6C1.52 16.72 6.04 12.56 12.88 12.56C16.48 12.56 20.88 13.76 25.84 16.96L22 22.8C18.04 20.28 14.88 19.4 12.52 19.4C10.04 19.4 8.48 20.36 8.48 21.32C8.48 24.2 26.88 23.4 26.88 34C26.88 38.8 22.12 42.96 15.16 42.96C11.08 42.96 6.28 41.44 0.96 37.68ZM52.605 27.72C52.605 23.2 48.925 19.44 44.325 19.44C39.765 19.44 36.005 23.2 36.005 27.72C36.005 32.32 39.765 36.08 44.325 36.08C48.925 36.08 52.605 32.32 52.605 27.72ZM29.085 27.72C29.085 19.4 35.925 12.56 44.325 12.56C52.685 12.56 59.525 19.4 59.525 27.72C59.525 36.16 52.685 42.96 44.325 42.96C35.925 42.96 29.085 36.16 29.085 27.72ZM62.9888 29.96V13.52H69.8688V29.96C69.8688 33.36 72.7088 36.08 76.1888 36.08C79.6688 36.08 82.4688 33.36 82.4688 29.96V13.52H89.3488V29.96C89.3488 37.28 83.4288 42.96 76.1888 42.96C68.9488 42.96 62.9888 37.28 62.9888 29.96ZM94.515 42V13.52H101.395V35.2H117.715V42H94.515Z" fill="#EBECF3"/>
<path d="M0.28086 66.3965L7.44278 49.7322H9.73646L16.8984 66.3965H14.4175L13.3642 63.9156H3.83841L2.76179 66.3965H0.28086ZM4.79802 61.6219H12.3812L8.58962 52.845L4.79802 61.6219ZM33.2385 59.1878V56.9175H37.8259C37.8727 57.2686 37.8727 57.6898 37.8727 58.0409C37.8727 62.9794 33.8705 66.9582 28.9554 66.9582C24.0638 66.9582 20.0849 62.9794 20.0849 58.0409C20.0849 53.1727 24.0638 49.1704 28.9554 49.1704C31.3661 49.1704 33.5194 50.1066 35.1343 51.6514L33.5662 53.2897C32.3725 52.1429 30.7342 51.4407 28.9554 51.4407C25.3276 51.4407 22.3552 54.4131 22.3552 58.0409C22.3552 61.7155 25.3276 64.6879 28.9554 64.6879C32.2555 64.6879 34.9705 62.2772 35.5088 59.1878H33.2385ZM43.0933 66.3965V49.7322H55.7554V52.0258H45.3636V56.8941H52.9702V59.1644H45.3636V64.1262H55.7554V66.3965H43.0933ZM61.3528 66.3965V49.7322H64.2784L73.7808 63.3772V49.7322H76.0511V66.3965H73.1255L63.6231 52.7514V66.3965H61.3528ZM96.0547 61.0133L98.0909 62.0432C96.6398 64.9688 93.6674 66.9582 90.1566 66.9582C85.265 66.9582 81.2862 62.9794 81.2862 58.0409C81.2862 53.1727 85.265 49.1704 90.1566 49.1704C93.6674 49.1704 96.6866 51.1599 98.0909 54.0621L96.0547 55.0685C95.0015 52.9152 92.778 51.4407 90.1566 51.4407C86.5289 51.4407 83.5564 54.4131 83.5564 58.0409C83.5564 61.7155 86.5289 64.6879 90.1566 64.6879C92.778 64.6879 94.9546 63.19 96.0547 61.0133ZM108.098 66.3965V62.2772L101.498 49.7322H104.096L109.222 59.5856L114.394 49.7322H116.969L110.369 62.2772V66.3965H108.098Z" fill="#EBECF3"/>
</svg>
